<mxfile host="app.diagrams.net" agent="Mozilla/5.0 (Windows NT 10.0; Win64; x64) AppleWebKit/537.36 (KHTML, like Gecko) Chrome/133.0.0.0 Safari/537.36" version="26.0.16">
  <diagram name="第 1 页" id="1Eva6R8q3uNSJoKUp0t2">
    <mxGraphModel dx="2257" dy="757" grid="1" gridSize="10" guides="1" tooltips="1" connect="1" arrows="1" fold="1" page="1" pageScale="1" pageWidth="827" pageHeight="1169" math="0" shadow="0">
      <root>
        <mxCell id="0" />
        <mxCell id="1" parent="0" />
        <mxCell id="XsVba3elednxEtef4jRt-15" value="" style="shape=table;startSize=0;container=1;collapsible=0;childLayout=tableLayout;fontSize=20;fontFamily=Times New Roman;" vertex="1" parent="1">
          <mxGeometry x="20" y="540" width="780" height="60" as="geometry" />
        </mxCell>
        <mxCell id="XsVba3elednxEtef4jRt-16" value="" style="shape=tableRow;horizontal=0;startSize=0;swimlaneHead=0;swimlaneBody=0;strokeColor=inherit;top=0;left=0;bottom=0;right=0;collapsible=0;dropTarget=0;fillColor=none;points=[[0,0.5],[1,0.5]];portConstraint=eastwest;fontSize=20;fontFamily=Times New Roman;" vertex="1" parent="XsVba3elednxEtef4jRt-15">
          <mxGeometry width="780" height="60" as="geometry" />
        </mxCell>
        <mxCell id="XsVba3elednxEtef4jRt-17" value="2" style="shape=partialRectangle;html=1;whiteSpace=wrap;connectable=0;strokeColor=#6c8ebf;overflow=hidden;fillColor=#dae8fc;top=0;left=0;bottom=0;right=0;pointerEvents=1;fontSize=20;fontFamily=Times New Roman;" vertex="1" parent="XsVba3elednxEtef4jRt-16">
          <mxGeometry width="60" height="60" as="geometry">
            <mxRectangle width="60" height="60" as="alternateBounds" />
          </mxGeometry>
        </mxCell>
        <mxCell id="XsVba3elednxEtef4jRt-18" value="1" style="shape=partialRectangle;html=1;whiteSpace=wrap;connectable=0;strokeColor=#82b366;overflow=hidden;fillColor=#d5e8d4;top=0;left=0;bottom=0;right=0;pointerEvents=1;fontSize=20;fontFamily=Times New Roman;" vertex="1" parent="XsVba3elednxEtef4jRt-16">
          <mxGeometry x="60" width="60" height="60" as="geometry">
            <mxRectangle width="60" height="60" as="alternateBounds" />
          </mxGeometry>
        </mxCell>
        <mxCell id="XsVba3elednxEtef4jRt-19" value="3" style="shape=partialRectangle;html=1;whiteSpace=wrap;connectable=0;strokeColor=#d79b00;overflow=hidden;fillColor=#ffe6cc;top=0;left=0;bottom=0;right=0;pointerEvents=1;fontSize=20;fontFamily=Times New Roman;" vertex="1" parent="XsVba3elednxEtef4jRt-16">
          <mxGeometry x="120" width="60" height="60" as="geometry">
            <mxRectangle width="60" height="60" as="alternateBounds" />
          </mxGeometry>
        </mxCell>
        <mxCell id="XsVba3elednxEtef4jRt-20" value="1" style="shape=partialRectangle;html=1;whiteSpace=wrap;connectable=0;strokeColor=#82b366;overflow=hidden;fillColor=#d5e8d4;top=0;left=0;bottom=0;right=0;pointerEvents=1;fontSize=20;fontFamily=Times New Roman;" vertex="1" parent="XsVba3elednxEtef4jRt-16">
          <mxGeometry x="180" width="60" height="60" as="geometry">
            <mxRectangle width="60" height="60" as="alternateBounds" />
          </mxGeometry>
        </mxCell>
        <mxCell id="XsVba3elednxEtef4jRt-21" value="4" style="shape=partialRectangle;html=1;whiteSpace=wrap;connectable=0;strokeColor=#b85450;overflow=hidden;fillColor=#f8cecc;top=0;left=0;bottom=0;right=0;pointerEvents=1;fontSize=20;fontFamily=Times New Roman;" vertex="1" parent="XsVba3elednxEtef4jRt-16">
          <mxGeometry x="240" width="60" height="60" as="geometry">
            <mxRectangle width="60" height="60" as="alternateBounds" />
          </mxGeometry>
        </mxCell>
        <mxCell id="XsVba3elednxEtef4jRt-22" value="2" style="shape=partialRectangle;html=1;whiteSpace=wrap;connectable=0;strokeColor=#6c8ebf;overflow=hidden;fillColor=#dae8fc;top=0;left=0;bottom=0;right=0;pointerEvents=1;fontSize=20;fontFamily=Times New Roman;" vertex="1" parent="XsVba3elednxEtef4jRt-16">
          <mxGeometry x="300" width="60" height="60" as="geometry">
            <mxRectangle width="60" height="60" as="alternateBounds" />
          </mxGeometry>
        </mxCell>
        <mxCell id="XsVba3elednxEtef4jRt-23" value="3" style="shape=partialRectangle;html=1;whiteSpace=wrap;connectable=0;strokeColor=#d79b00;overflow=hidden;fillColor=#ffe6cc;top=0;left=0;bottom=0;right=0;pointerEvents=1;fontSize=20;fontFamily=Times New Roman;" vertex="1" parent="XsVba3elednxEtef4jRt-16">
          <mxGeometry x="360" width="60" height="60" as="geometry">
            <mxRectangle width="60" height="60" as="alternateBounds" />
          </mxGeometry>
        </mxCell>
        <mxCell id="XsVba3elednxEtef4jRt-24" value="5" style="shape=partialRectangle;html=1;whiteSpace=wrap;connectable=0;strokeColor=#9673a6;overflow=hidden;fillColor=#e1d5e7;top=0;left=0;bottom=0;right=0;pointerEvents=1;fontSize=20;fontFamily=Times New Roman;" vertex="1" parent="XsVba3elednxEtef4jRt-16">
          <mxGeometry x="420" width="60" height="60" as="geometry">
            <mxRectangle width="60" height="60" as="alternateBounds" />
          </mxGeometry>
        </mxCell>
        <mxCell id="XsVba3elednxEtef4jRt-25" value="2" style="shape=partialRectangle;html=1;whiteSpace=wrap;connectable=0;strokeColor=#6c8ebf;overflow=hidden;fillColor=#dae8fc;top=0;left=0;bottom=0;right=0;pointerEvents=1;fontSize=20;fontFamily=Times New Roman;" vertex="1" parent="XsVba3elednxEtef4jRt-16">
          <mxGeometry x="480" width="60" height="60" as="geometry">
            <mxRectangle width="60" height="60" as="alternateBounds" />
          </mxGeometry>
        </mxCell>
        <mxCell id="XsVba3elednxEtef4jRt-26" value="3" style="shape=partialRectangle;html=1;whiteSpace=wrap;connectable=0;strokeColor=#d79b00;overflow=hidden;fillColor=#ffe6cc;top=0;left=0;bottom=0;right=0;pointerEvents=1;fontSize=20;fontFamily=Times New Roman;" vertex="1" parent="XsVba3elednxEtef4jRt-16">
          <mxGeometry x="540" width="60" height="60" as="geometry">
            <mxRectangle width="60" height="60" as="alternateBounds" />
          </mxGeometry>
        </mxCell>
        <mxCell id="XsVba3elednxEtef4jRt-27" value="5" style="shape=partialRectangle;html=1;whiteSpace=wrap;connectable=0;strokeColor=#9673a6;overflow=hidden;fillColor=#e1d5e7;top=0;left=0;bottom=0;right=0;pointerEvents=1;fontSize=20;fontFamily=Times New Roman;" vertex="1" parent="XsVba3elednxEtef4jRt-16">
          <mxGeometry x="600" width="60" height="60" as="geometry">
            <mxRectangle width="60" height="60" as="alternateBounds" />
          </mxGeometry>
        </mxCell>
        <mxCell id="XsVba3elednxEtef4jRt-28" value="4" style="shape=partialRectangle;html=1;whiteSpace=wrap;connectable=0;strokeColor=#b85450;overflow=hidden;fillColor=#f8cecc;top=0;left=0;bottom=0;right=0;pointerEvents=1;fontSize=20;fontFamily=Times New Roman;" vertex="1" parent="XsVba3elednxEtef4jRt-16">
          <mxGeometry x="660" width="60" height="60" as="geometry">
            <mxRectangle width="60" height="60" as="alternateBounds" />
          </mxGeometry>
        </mxCell>
        <mxCell id="XsVba3elednxEtef4jRt-29" value="1" style="shape=partialRectangle;html=1;whiteSpace=wrap;connectable=0;strokeColor=#82b366;overflow=hidden;fillColor=#d5e8d4;top=0;left=0;bottom=0;right=0;pointerEvents=1;fontSize=20;fontFamily=Times New Roman;" vertex="1" parent="XsVba3elednxEtef4jRt-16">
          <mxGeometry x="720" width="60" height="60" as="geometry">
            <mxRectangle width="60" height="60" as="alternateBounds" />
          </mxGeometry>
        </mxCell>
        <mxCell id="XsVba3elednxEtef4jRt-30" style="edgeStyle=orthogonalEdgeStyle;rounded=0;orthogonalLoop=1;jettySize=auto;html=1;exitX=1;exitY=0.5;exitDx=0;exitDy=0;fontSize=20;fontFamily=Times New Roman;" edge="1" parent="XsVba3elednxEtef4jRt-15" source="XsVba3elednxEtef4jRt-16" target="XsVba3elednxEtef4jRt-16">
          <mxGeometry relative="1" as="geometry" />
        </mxCell>
        <mxCell id="XsVba3elednxEtef4jRt-31" value="" style="shape=table;startSize=0;container=1;collapsible=0;childLayout=tableLayout;fontFamily=Times New Roman;fontSize=20;fillColor=#d5e8d4;strokeColor=#82b366;" vertex="1" parent="1">
          <mxGeometry x="20" y="670" width="780" height="60" as="geometry" />
        </mxCell>
        <mxCell id="XsVba3elednxEtef4jRt-32" value="" style="shape=tableRow;horizontal=0;startSize=0;swimlaneHead=0;swimlaneBody=0;strokeColor=inherit;top=0;left=0;bottom=0;right=0;collapsible=0;dropTarget=0;fillColor=none;points=[[0,0.5],[1,0.5]];portConstraint=eastwest;fontFamily=Times New Roman;fontSize=20;" vertex="1" parent="XsVba3elednxEtef4jRt-31">
          <mxGeometry width="780" height="60" as="geometry" />
        </mxCell>
        <mxCell id="XsVba3elednxEtef4jRt-33" value="3" style="shape=partialRectangle;html=1;whiteSpace=wrap;connectable=0;strokeColor=#82b366;overflow=hidden;fillColor=#d5e8d4;top=0;left=0;bottom=0;right=0;pointerEvents=1;fontFamily=Times New Roman;fontSize=20;" vertex="1" parent="XsVba3elednxEtef4jRt-32">
          <mxGeometry width="60" height="60" as="geometry">
            <mxRectangle width="60" height="60" as="alternateBounds" />
          </mxGeometry>
        </mxCell>
        <mxCell id="XsVba3elednxEtef4jRt-34" value="2" style="shape=partialRectangle;html=1;whiteSpace=wrap;connectable=0;strokeColor=#82b366;overflow=hidden;fillColor=#d5e8d4;top=0;left=0;bottom=0;right=0;pointerEvents=1;fontFamily=Times New Roman;fontSize=20;" vertex="1" parent="XsVba3elednxEtef4jRt-32">
          <mxGeometry x="60" width="60" height="60" as="geometry">
            <mxRectangle width="60" height="60" as="alternateBounds" />
          </mxGeometry>
        </mxCell>
        <mxCell id="XsVba3elednxEtef4jRt-35" value="4" style="shape=partialRectangle;html=1;whiteSpace=wrap;connectable=0;strokeColor=#82b366;overflow=hidden;fillColor=#d5e8d4;top=0;left=0;bottom=0;right=0;pointerEvents=1;fontFamily=Times New Roman;fontSize=20;" vertex="1" parent="XsVba3elednxEtef4jRt-32">
          <mxGeometry x="120" width="60" height="60" as="geometry">
            <mxRectangle width="60" height="60" as="alternateBounds" />
          </mxGeometry>
        </mxCell>
        <mxCell id="XsVba3elednxEtef4jRt-36" value="2" style="shape=partialRectangle;html=1;whiteSpace=wrap;connectable=0;strokeColor=#6c8ebf;overflow=hidden;fillColor=#dae8fc;top=0;left=0;bottom=0;right=0;pointerEvents=1;fontFamily=Times New Roman;fontSize=20;" vertex="1" parent="XsVba3elednxEtef4jRt-32">
          <mxGeometry x="180" width="60" height="60" as="geometry">
            <mxRectangle width="60" height="60" as="alternateBounds" />
          </mxGeometry>
        </mxCell>
        <mxCell id="XsVba3elednxEtef4jRt-37" value="3" style="shape=partialRectangle;html=1;whiteSpace=wrap;connectable=0;strokeColor=#6c8ebf;overflow=hidden;fillColor=#dae8fc;top=0;left=0;bottom=0;right=0;pointerEvents=1;fontFamily=Times New Roman;fontSize=20;" vertex="1" parent="XsVba3elednxEtef4jRt-32">
          <mxGeometry x="240" width="60" height="60" as="geometry">
            <mxRectangle width="60" height="60" as="alternateBounds" />
          </mxGeometry>
        </mxCell>
        <mxCell id="XsVba3elednxEtef4jRt-38" value="3" style="shape=partialRectangle;html=1;whiteSpace=wrap;connectable=0;strokeColor=#6c8ebf;overflow=hidden;fillColor=#dae8fc;top=0;left=0;bottom=0;right=0;pointerEvents=1;fontFamily=Times New Roman;fontSize=20;" vertex="1" parent="XsVba3elednxEtef4jRt-32">
          <mxGeometry x="300" width="60" height="60" as="geometry">
            <mxRectangle width="60" height="60" as="alternateBounds" />
          </mxGeometry>
        </mxCell>
        <mxCell id="XsVba3elednxEtef4jRt-39" value="1" style="shape=partialRectangle;html=1;whiteSpace=wrap;connectable=0;strokeColor=#d79b00;overflow=hidden;fillColor=#ffe6cc;top=0;left=0;bottom=0;right=0;pointerEvents=1;fontFamily=Times New Roman;fontSize=20;" vertex="1" parent="XsVba3elednxEtef4jRt-32">
          <mxGeometry x="360" width="60" height="60" as="geometry">
            <mxRectangle width="60" height="60" as="alternateBounds" />
          </mxGeometry>
        </mxCell>
        <mxCell id="XsVba3elednxEtef4jRt-40" value="3" style="shape=partialRectangle;html=1;whiteSpace=wrap;connectable=0;strokeColor=#d79b00;overflow=hidden;fillColor=#ffe6cc;top=0;left=0;bottom=0;right=0;pointerEvents=1;fontFamily=Times New Roman;fontSize=20;" vertex="1" parent="XsVba3elednxEtef4jRt-32">
          <mxGeometry x="420" width="60" height="60" as="geometry">
            <mxRectangle width="60" height="60" as="alternateBounds" />
          </mxGeometry>
        </mxCell>
        <mxCell id="XsVba3elednxEtef4jRt-41" value="3" style="shape=partialRectangle;html=1;whiteSpace=wrap;connectable=0;strokeColor=#d79b00;overflow=hidden;fillColor=#ffe6cc;top=0;left=0;bottom=0;right=0;pointerEvents=1;fontFamily=Times New Roman;fontSize=20;" vertex="1" parent="XsVba3elednxEtef4jRt-32">
          <mxGeometry x="480" width="60" height="60" as="geometry">
            <mxRectangle width="60" height="60" as="alternateBounds" />
          </mxGeometry>
        </mxCell>
        <mxCell id="XsVba3elednxEtef4jRt-42" value="1" style="shape=partialRectangle;html=1;whiteSpace=wrap;connectable=0;strokeColor=#b85450;overflow=hidden;fillColor=#f8cecc;top=0;left=0;bottom=0;right=0;pointerEvents=1;fontFamily=Times New Roman;fontSize=20;" vertex="1" parent="XsVba3elednxEtef4jRt-32">
          <mxGeometry x="540" width="60" height="60" as="geometry">
            <mxRectangle width="60" height="60" as="alternateBounds" />
          </mxGeometry>
        </mxCell>
        <mxCell id="XsVba3elednxEtef4jRt-43" value="1" style="shape=partialRectangle;html=1;whiteSpace=wrap;connectable=0;strokeColor=#b85450;overflow=hidden;fillColor=#f8cecc;top=0;left=0;bottom=0;right=0;pointerEvents=1;fontFamily=Times New Roman;fontSize=20;" vertex="1" parent="XsVba3elednxEtef4jRt-32">
          <mxGeometry x="600" width="60" height="60" as="geometry">
            <mxRectangle width="60" height="60" as="alternateBounds" />
          </mxGeometry>
        </mxCell>
        <mxCell id="XsVba3elednxEtef4jRt-44" value="2" style="shape=partialRectangle;html=1;whiteSpace=wrap;connectable=0;strokeColor=#9673a6;overflow=hidden;fillColor=#e1d5e7;top=0;left=0;bottom=0;right=0;pointerEvents=1;fontFamily=Times New Roman;fontSize=20;" vertex="1" parent="XsVba3elednxEtef4jRt-32">
          <mxGeometry x="660" width="60" height="60" as="geometry">
            <mxRectangle width="60" height="60" as="alternateBounds" />
          </mxGeometry>
        </mxCell>
        <mxCell id="XsVba3elednxEtef4jRt-45" value="1" style="shape=partialRectangle;html=1;whiteSpace=wrap;connectable=0;strokeColor=#9673a6;overflow=hidden;fillColor=#e1d5e7;top=0;left=0;bottom=0;right=0;pointerEvents=1;fontFamily=Times New Roman;fontSize=20;" vertex="1" parent="XsVba3elednxEtef4jRt-32">
          <mxGeometry x="720" width="60" height="60" as="geometry">
            <mxRectangle width="60" height="60" as="alternateBounds" />
          </mxGeometry>
        </mxCell>
        <mxCell id="XsVba3elednxEtef4jRt-46" style="edgeStyle=orthogonalEdgeStyle;rounded=0;orthogonalLoop=1;jettySize=auto;html=1;exitX=1;exitY=0.5;exitDx=0;exitDy=0;fontFamily=Times New Roman;fontSize=20;" edge="1" parent="XsVba3elednxEtef4jRt-31" source="XsVba3elednxEtef4jRt-32" target="XsVba3elednxEtef4jRt-32">
          <mxGeometry relative="1" as="geometry" />
        </mxCell>
        <mxCell id="XsVba3elednxEtef4jRt-47" value="" style="shape=table;startSize=0;container=1;collapsible=0;childLayout=tableLayout;fontFamily=Times New Roman;fontSize=20;fillColor=#fad7ac;strokeColor=#b46504;" vertex="1" parent="1">
          <mxGeometry x="20" y="800" width="1080" height="60" as="geometry" />
        </mxCell>
        <mxCell id="XsVba3elednxEtef4jRt-62" style="edgeStyle=orthogonalEdgeStyle;rounded=0;orthogonalLoop=1;jettySize=auto;html=1;exitX=1;exitY=0.5;exitDx=0;exitDy=0;fontFamily=Times New Roman;fontSize=20;" edge="1" parent="XsVba3elednxEtef4jRt-47" source="XsVba3elednxEtef4jRt-48" target="XsVba3elednxEtef4jRt-48">
          <mxGeometry relative="1" as="geometry" />
        </mxCell>
        <mxCell id="XsVba3elednxEtef4jRt-48" value="" style="shape=tableRow;horizontal=0;startSize=0;swimlaneHead=0;swimlaneBody=0;strokeColor=inherit;top=0;left=0;bottom=0;right=0;collapsible=0;dropTarget=0;fillColor=none;points=[[0,0.5],[1,0.5]];portConstraint=eastwest;fontFamily=Times New Roman;fontSize=20;" vertex="1" parent="XsVba3elednxEtef4jRt-47">
          <mxGeometry width="1080" height="60" as="geometry" />
        </mxCell>
        <mxCell id="XsVba3elednxEtef4jRt-49" value="1" style="shape=partialRectangle;html=1;whiteSpace=wrap;connectable=0;strokeColor=#6c8ebf;overflow=hidden;fillColor=#dae8fc;top=0;left=0;bottom=0;right=0;pointerEvents=1;fontFamily=Times New Roman;fontSize=20;" vertex="1" parent="XsVba3elednxEtef4jRt-48">
          <mxGeometry width="60" height="60" as="geometry">
            <mxRectangle width="60" height="60" as="alternateBounds" />
          </mxGeometry>
        </mxCell>
        <mxCell id="XsVba3elednxEtef4jRt-50" value="2" style="shape=partialRectangle;html=1;whiteSpace=wrap;connectable=0;strokeColor=#82b366;overflow=hidden;fillColor=#d5e8d4;top=0;left=0;bottom=0;right=0;pointerEvents=1;fontFamily=Times New Roman;fontSize=20;" vertex="1" parent="XsVba3elednxEtef4jRt-48">
          <mxGeometry x="60" width="60" height="60" as="geometry">
            <mxRectangle width="60" height="60" as="alternateBounds" />
          </mxGeometry>
        </mxCell>
        <mxCell id="XsVba3elednxEtef4jRt-51" value="1" style="shape=partialRectangle;html=1;whiteSpace=wrap;connectable=0;strokeColor=#d79b00;overflow=hidden;fillColor=#ffe6cc;top=0;left=0;bottom=0;right=0;pointerEvents=1;fontFamily=Times New Roman;fontSize=20;" vertex="1" parent="XsVba3elednxEtef4jRt-48">
          <mxGeometry x="120" width="60" height="60" as="geometry">
            <mxRectangle width="60" height="60" as="alternateBounds" />
          </mxGeometry>
        </mxCell>
        <mxCell id="XsVba3elednxEtef4jRt-52" value="2" style="shape=partialRectangle;html=1;whiteSpace=wrap;connectable=0;strokeColor=#82b366;overflow=hidden;fillColor=#d5e8d4;top=0;left=0;bottom=0;right=0;pointerEvents=1;fontFamily=Times New Roman;fontSize=20;" vertex="1" parent="XsVba3elednxEtef4jRt-48">
          <mxGeometry x="180" width="60" height="60" as="geometry">
            <mxRectangle width="60" height="60" as="alternateBounds" />
          </mxGeometry>
        </mxCell>
        <mxCell id="XsVba3elednxEtef4jRt-53" value="2" style="shape=partialRectangle;html=1;whiteSpace=wrap;connectable=0;strokeColor=#b85450;overflow=hidden;fillColor=#f8cecc;top=0;left=0;bottom=0;right=0;pointerEvents=1;fontFamily=Times New Roman;fontSize=20;" vertex="1" parent="XsVba3elednxEtef4jRt-48">
          <mxGeometry x="240" width="60" height="60" as="geometry">
            <mxRectangle width="60" height="60" as="alternateBounds" />
          </mxGeometry>
        </mxCell>
        <mxCell id="XsVba3elednxEtef4jRt-54" value="1" style="shape=partialRectangle;html=1;whiteSpace=wrap;connectable=0;strokeColor=#6c8ebf;overflow=hidden;fillColor=#dae8fc;top=0;left=0;bottom=0;right=0;pointerEvents=1;fontFamily=Times New Roman;fontSize=20;" vertex="1" parent="XsVba3elednxEtef4jRt-48">
          <mxGeometry x="300" width="60" height="60" as="geometry">
            <mxRectangle width="60" height="60" as="alternateBounds" />
          </mxGeometry>
        </mxCell>
        <mxCell id="XsVba3elednxEtef4jRt-55" value="2" style="shape=partialRectangle;html=1;whiteSpace=wrap;connectable=0;strokeColor=#d79b00;overflow=hidden;fillColor=#ffe6cc;top=0;left=0;bottom=0;right=0;pointerEvents=1;fontFamily=Times New Roman;fontSize=20;" vertex="1" parent="XsVba3elednxEtef4jRt-48">
          <mxGeometry x="360" width="60" height="60" as="geometry">
            <mxRectangle width="60" height="60" as="alternateBounds" />
          </mxGeometry>
        </mxCell>
        <mxCell id="XsVba3elednxEtef4jRt-56" value="1" style="shape=partialRectangle;html=1;whiteSpace=wrap;connectable=0;strokeColor=#9673a6;overflow=hidden;fillColor=#e1d5e7;top=0;left=0;bottom=0;right=0;pointerEvents=1;fontFamily=Times New Roman;fontSize=20;" vertex="1" parent="XsVba3elednxEtef4jRt-48">
          <mxGeometry x="420" width="60" height="60" as="geometry">
            <mxRectangle width="60" height="60" as="alternateBounds" />
          </mxGeometry>
        </mxCell>
        <mxCell id="XsVba3elednxEtef4jRt-57" value="2" style="shape=partialRectangle;html=1;whiteSpace=wrap;connectable=0;strokeColor=#6c8ebf;overflow=hidden;fillColor=#dae8fc;top=0;left=0;bottom=0;right=0;pointerEvents=1;fontFamily=Times New Roman;fontSize=20;" vertex="1" parent="XsVba3elednxEtef4jRt-48">
          <mxGeometry x="480" width="60" height="60" as="geometry">
            <mxRectangle width="60" height="60" as="alternateBounds" />
          </mxGeometry>
        </mxCell>
        <mxCell id="XsVba3elednxEtef4jRt-58" value="2" style="shape=partialRectangle;html=1;whiteSpace=wrap;connectable=0;strokeColor=#d79b00;overflow=hidden;fillColor=#ffe6cc;top=0;left=0;bottom=0;right=0;pointerEvents=1;fontFamily=Times New Roman;fontSize=20;" vertex="1" parent="XsVba3elednxEtef4jRt-48">
          <mxGeometry x="540" width="60" height="60" as="geometry">
            <mxRectangle width="60" height="60" as="alternateBounds" />
          </mxGeometry>
        </mxCell>
        <mxCell id="XsVba3elednxEtef4jRt-59" value="2" style="shape=partialRectangle;html=1;whiteSpace=wrap;connectable=0;strokeColor=#9673a6;overflow=hidden;fillColor=#e1d5e7;top=0;left=0;bottom=0;right=0;pointerEvents=1;fontFamily=Times New Roman;fontSize=20;" vertex="1" parent="XsVba3elednxEtef4jRt-48">
          <mxGeometry x="600" width="60" height="60" as="geometry">
            <mxRectangle width="60" height="60" as="alternateBounds" />
          </mxGeometry>
        </mxCell>
        <mxCell id="XsVba3elednxEtef4jRt-60" value="2" style="shape=partialRectangle;html=1;whiteSpace=wrap;connectable=0;strokeColor=#b85450;overflow=hidden;fillColor=#f8cecc;top=0;left=0;bottom=0;right=0;pointerEvents=1;fontFamily=Times New Roman;fontSize=20;" vertex="1" parent="XsVba3elednxEtef4jRt-48">
          <mxGeometry x="660" width="60" height="60" as="geometry">
            <mxRectangle width="60" height="60" as="alternateBounds" />
          </mxGeometry>
        </mxCell>
        <mxCell id="XsVba3elednxEtef4jRt-61" value="1" style="shape=partialRectangle;html=1;whiteSpace=wrap;connectable=0;strokeColor=#82b366;overflow=hidden;fillColor=#d5e8d4;top=0;left=0;bottom=0;right=0;pointerEvents=1;fontFamily=Times New Roman;fontSize=20;" vertex="1" parent="XsVba3elednxEtef4jRt-48">
          <mxGeometry x="720" width="60" height="60" as="geometry">
            <mxRectangle width="60" height="60" as="alternateBounds" />
          </mxGeometry>
        </mxCell>
        <mxCell id="XsVba3elednxEtef4jRt-84" value="1" style="shape=partialRectangle;html=1;whiteSpace=wrap;connectable=0;strokeColor=#82b366;overflow=hidden;fillColor=#d5e8d4;top=0;left=0;bottom=0;right=0;pointerEvents=1;fontFamily=Times New Roman;fontSize=20;" vertex="1" parent="XsVba3elednxEtef4jRt-48">
          <mxGeometry x="780" width="60" height="60" as="geometry">
            <mxRectangle width="60" height="60" as="alternateBounds" />
          </mxGeometry>
        </mxCell>
        <mxCell id="XsVba3elednxEtef4jRt-85" value="1" style="shape=partialRectangle;html=1;whiteSpace=wrap;connectable=0;strokeColor=#6c8ebf;overflow=hidden;fillColor=#dae8fc;top=0;left=0;bottom=0;right=0;pointerEvents=1;fontFamily=Times New Roman;fontSize=20;" vertex="1" parent="XsVba3elednxEtef4jRt-48">
          <mxGeometry x="840" width="60" height="60" as="geometry">
            <mxRectangle width="60" height="60" as="alternateBounds" />
          </mxGeometry>
        </mxCell>
        <mxCell id="XsVba3elednxEtef4jRt-86" value="2" style="shape=partialRectangle;html=1;whiteSpace=wrap;connectable=0;strokeColor=#d79b00;overflow=hidden;fillColor=#ffe6cc;top=0;left=0;bottom=0;right=0;pointerEvents=1;fontFamily=Times New Roman;fontSize=20;" vertex="1" parent="XsVba3elednxEtef4jRt-48">
          <mxGeometry x="900" width="60" height="60" as="geometry">
            <mxRectangle width="60" height="60" as="alternateBounds" />
          </mxGeometry>
        </mxCell>
        <mxCell id="XsVba3elednxEtef4jRt-87" value="1" style="shape=partialRectangle;html=1;whiteSpace=wrap;connectable=0;strokeColor=#b85450;overflow=hidden;fillColor=#f8cecc;top=0;left=0;bottom=0;right=0;pointerEvents=1;fontFamily=Times New Roman;fontSize=20;" vertex="1" parent="XsVba3elednxEtef4jRt-48">
          <mxGeometry x="960" width="60" height="60" as="geometry">
            <mxRectangle width="60" height="60" as="alternateBounds" />
          </mxGeometry>
        </mxCell>
        <mxCell id="XsVba3elednxEtef4jRt-88" value="2" style="shape=partialRectangle;html=1;whiteSpace=wrap;connectable=0;strokeColor=#9673a6;overflow=hidden;fillColor=#e1d5e7;top=0;left=0;bottom=0;right=0;pointerEvents=1;fontFamily=Times New Roman;fontSize=20;" vertex="1" parent="XsVba3elednxEtef4jRt-48">
          <mxGeometry x="1020" width="60" height="60" as="geometry">
            <mxRectangle width="60" height="60" as="alternateBounds" />
          </mxGeometry>
        </mxCell>
        <mxCell id="XsVba3elednxEtef4jRt-64" value="" style="shape=table;startSize=0;container=1;collapsible=0;childLayout=tableLayout;fontFamily=Times New Roman;fontSize=20;" vertex="1" parent="1">
          <mxGeometry x="20" y="410" width="780" height="60" as="geometry" />
        </mxCell>
        <mxCell id="XsVba3elednxEtef4jRt-65" value="" style="shape=tableRow;horizontal=0;startSize=0;swimlaneHead=0;swimlaneBody=0;strokeColor=inherit;top=0;left=0;bottom=0;right=0;collapsible=0;dropTarget=0;fillColor=none;points=[[0,0.5],[1,0.5]];portConstraint=eastwest;fontFamily=Times New Roman;fontSize=20;" vertex="1" parent="XsVba3elednxEtef4jRt-64">
          <mxGeometry width="780" height="60" as="geometry" />
        </mxCell>
        <mxCell id="XsVba3elednxEtef4jRt-66" value="1" style="shape=partialRectangle;html=1;whiteSpace=wrap;connectable=0;strokeColor=#82b366;overflow=hidden;fillColor=#d5e8d4;top=0;left=0;bottom=0;right=0;pointerEvents=1;fontFamily=Times New Roman;fontSize=20;" vertex="1" parent="XsVba3elednxEtef4jRt-65">
          <mxGeometry width="60" height="60" as="geometry">
            <mxRectangle width="60" height="60" as="alternateBounds" />
          </mxGeometry>
        </mxCell>
        <mxCell id="XsVba3elednxEtef4jRt-67" value="1" style="shape=partialRectangle;html=1;whiteSpace=wrap;connectable=0;strokeColor=#82b366;overflow=hidden;fillColor=#d5e8d4;top=0;left=0;bottom=0;right=0;pointerEvents=1;fontSize=20;fontFamily=Times New Roman;" vertex="1" parent="XsVba3elednxEtef4jRt-65">
          <mxGeometry x="60" width="60" height="60" as="geometry">
            <mxRectangle width="60" height="60" as="alternateBounds" />
          </mxGeometry>
        </mxCell>
        <mxCell id="XsVba3elednxEtef4jRt-68" value="1" style="shape=partialRectangle;html=1;whiteSpace=wrap;connectable=0;strokeColor=#82b366;overflow=hidden;fillColor=#d5e8d4;top=0;left=0;bottom=0;right=0;pointerEvents=1;fontFamily=Times New Roman;fontSize=20;" vertex="1" parent="XsVba3elednxEtef4jRt-65">
          <mxGeometry x="120" width="60" height="60" as="geometry">
            <mxRectangle width="60" height="60" as="alternateBounds" />
          </mxGeometry>
        </mxCell>
        <mxCell id="XsVba3elednxEtef4jRt-69" value="2" style="shape=partialRectangle;html=1;whiteSpace=wrap;connectable=0;strokeColor=#6c8ebf;overflow=hidden;fillColor=#dae8fc;top=0;left=0;bottom=0;right=0;pointerEvents=1;fontFamily=Times New Roman;fontSize=20;" vertex="1" parent="XsVba3elednxEtef4jRt-65">
          <mxGeometry x="180" width="60" height="60" as="geometry">
            <mxRectangle width="60" height="60" as="alternateBounds" />
          </mxGeometry>
        </mxCell>
        <mxCell id="XsVba3elednxEtef4jRt-70" value="2" style="shape=partialRectangle;html=1;whiteSpace=wrap;connectable=0;strokeColor=#6c8ebf;overflow=hidden;fillColor=#dae8fc;top=0;left=0;bottom=0;right=0;pointerEvents=1;fontFamily=Times New Roman;fontSize=20;" vertex="1" parent="XsVba3elednxEtef4jRt-65">
          <mxGeometry x="240" width="60" height="60" as="geometry">
            <mxRectangle width="60" height="60" as="alternateBounds" />
          </mxGeometry>
        </mxCell>
        <mxCell id="XsVba3elednxEtef4jRt-71" value="2" style="shape=partialRectangle;html=1;whiteSpace=wrap;connectable=0;strokeColor=#6c8ebf;overflow=hidden;fillColor=#dae8fc;top=0;left=0;bottom=0;right=0;pointerEvents=1;fontFamily=Times New Roman;fontSize=20;" vertex="1" parent="XsVba3elednxEtef4jRt-65">
          <mxGeometry x="300" width="60" height="60" as="geometry">
            <mxRectangle width="60" height="60" as="alternateBounds" />
          </mxGeometry>
        </mxCell>
        <mxCell id="XsVba3elednxEtef4jRt-72" value="3" style="shape=partialRectangle;html=1;whiteSpace=wrap;connectable=0;strokeColor=#d79b00;overflow=hidden;fillColor=#ffe6cc;top=0;left=0;bottom=0;right=0;pointerEvents=1;fontFamily=Times New Roman;fontSize=20;" vertex="1" parent="XsVba3elednxEtef4jRt-65">
          <mxGeometry x="360" width="60" height="60" as="geometry">
            <mxRectangle width="60" height="60" as="alternateBounds" />
          </mxGeometry>
        </mxCell>
        <mxCell id="XsVba3elednxEtef4jRt-73" value="3" style="shape=partialRectangle;html=1;whiteSpace=wrap;connectable=0;strokeColor=#d79b00;overflow=hidden;fillColor=#ffe6cc;top=0;left=0;bottom=0;right=0;pointerEvents=1;fontFamily=Times New Roman;fontSize=20;" vertex="1" parent="XsVba3elednxEtef4jRt-65">
          <mxGeometry x="420" width="60" height="60" as="geometry">
            <mxRectangle width="60" height="60" as="alternateBounds" />
          </mxGeometry>
        </mxCell>
        <mxCell id="XsVba3elednxEtef4jRt-74" value="3" style="shape=partialRectangle;html=1;whiteSpace=wrap;connectable=0;strokeColor=#d79b00;overflow=hidden;fillColor=#ffe6cc;top=0;left=0;bottom=0;right=0;pointerEvents=1;fontFamily=Times New Roman;fontSize=20;" vertex="1" parent="XsVba3elednxEtef4jRt-65">
          <mxGeometry x="480" width="60" height="60" as="geometry">
            <mxRectangle width="60" height="60" as="alternateBounds" />
          </mxGeometry>
        </mxCell>
        <mxCell id="XsVba3elednxEtef4jRt-75" value="4" style="shape=partialRectangle;html=1;whiteSpace=wrap;connectable=0;strokeColor=#b85450;overflow=hidden;fillColor=#f8cecc;top=0;left=0;bottom=0;right=0;pointerEvents=1;fontFamily=Times New Roman;fontSize=20;" vertex="1" parent="XsVba3elednxEtef4jRt-65">
          <mxGeometry x="540" width="60" height="60" as="geometry">
            <mxRectangle width="60" height="60" as="alternateBounds" />
          </mxGeometry>
        </mxCell>
        <mxCell id="XsVba3elednxEtef4jRt-76" value="4" style="shape=partialRectangle;html=1;whiteSpace=wrap;connectable=0;strokeColor=#b85450;overflow=hidden;fillColor=#f8cecc;top=0;left=0;bottom=0;right=0;pointerEvents=1;fontFamily=Times New Roman;fontSize=20;" vertex="1" parent="XsVba3elednxEtef4jRt-65">
          <mxGeometry x="600" width="60" height="60" as="geometry">
            <mxRectangle width="60" height="60" as="alternateBounds" />
          </mxGeometry>
        </mxCell>
        <mxCell id="XsVba3elednxEtef4jRt-77" value="5" style="shape=partialRectangle;html=1;whiteSpace=wrap;connectable=0;strokeColor=#9673a6;overflow=hidden;fillColor=#e1d5e7;top=0;left=0;bottom=0;right=0;pointerEvents=1;fontFamily=Times New Roman;fontSize=20;" vertex="1" parent="XsVba3elednxEtef4jRt-65">
          <mxGeometry x="660" width="60" height="60" as="geometry">
            <mxRectangle width="60" height="60" as="alternateBounds" />
          </mxGeometry>
        </mxCell>
        <mxCell id="XsVba3elednxEtef4jRt-78" value="5" style="shape=partialRectangle;html=1;whiteSpace=wrap;connectable=0;strokeColor=#9673a6;overflow=hidden;fillColor=#e1d5e7;top=0;left=0;bottom=0;right=0;pointerEvents=1;fontFamily=Times New Roman;fontSize=20;" vertex="1" parent="XsVba3elednxEtef4jRt-65">
          <mxGeometry x="720" width="60" height="60" as="geometry">
            <mxRectangle width="60" height="60" as="alternateBounds" />
          </mxGeometry>
        </mxCell>
        <mxCell id="XsVba3elednxEtef4jRt-79" style="edgeStyle=orthogonalEdgeStyle;rounded=0;orthogonalLoop=1;jettySize=auto;html=1;exitX=1;exitY=0.5;exitDx=0;exitDy=0;fontFamily=Times New Roman;fontSize=20;" edge="1" parent="XsVba3elednxEtef4jRt-64" source="XsVba3elednxEtef4jRt-65" target="XsVba3elednxEtef4jRt-65">
          <mxGeometry relative="1" as="geometry" />
        </mxCell>
        <mxCell id="XsVba3elednxEtef4jRt-80" value="OS" style="text;strokeColor=none;align=center;fillColor=none;html=1;verticalAlign=middle;whiteSpace=wrap;rounded=0;fontFamily=Times New Roman;fontSize=20;" vertex="1" parent="1">
          <mxGeometry x="-110" y="555" width="60" height="30" as="geometry" />
        </mxCell>
        <mxCell id="XsVba3elednxEtef4jRt-81" value="RA" style="text;strokeColor=none;align=center;fillColor=none;html=1;verticalAlign=middle;whiteSpace=wrap;rounded=0;fontFamily=Times New Roman;fontSize=20;" vertex="1" parent="1">
          <mxGeometry x="-110" y="790" width="60" height="30" as="geometry" />
        </mxCell>
        <mxCell id="XsVba3elednxEtef4jRt-82" value="MA" style="text;strokeColor=none;align=center;fillColor=none;html=1;verticalAlign=middle;whiteSpace=wrap;rounded=0;fontFamily=Times New Roman;fontSize=20;" vertex="1" parent="1">
          <mxGeometry x="-110" y="670" width="60" height="30" as="geometry" />
        </mxCell>
        <mxCell id="XsVba3elednxEtef4jRt-83" value="operation sequences" style="text;strokeColor=none;align=center;fillColor=none;html=1;verticalAlign=middle;whiteSpace=wrap;rounded=0;fontFamily=Times New Roman;fontSize=20;" vertex="1" parent="1">
          <mxGeometry x="-130" y="410" width="120" height="65" as="geometry" />
        </mxCell>
        <mxCell id="XsVba3elednxEtef4jRt-89" value="" style="endArrow=classic;html=1;rounded=0;exitX=0.037;exitY=1.006;exitDx=0;exitDy=0;exitPerimeter=0;" edge="1" parent="1" source="XsVba3elednxEtef4jRt-16">
          <mxGeometry width="50" height="50" relative="1" as="geometry">
            <mxPoint x="220" y="660" as="sourcePoint" />
            <mxPoint x="230" y="670" as="targetPoint" />
          </mxGeometry>
        </mxCell>
        <mxCell id="XsVba3elednxEtef4jRt-90" value="" style="endArrow=classic;html=1;rounded=0;exitX=0.115;exitY=0.991;exitDx=0;exitDy=0;exitPerimeter=0;entryX=0.034;entryY=-0.014;entryDx=0;entryDy=0;entryPerimeter=0;" edge="1" parent="1" source="XsVba3elednxEtef4jRt-16" target="XsVba3elednxEtef4jRt-32">
          <mxGeometry width="50" height="50" relative="1" as="geometry">
            <mxPoint x="59" y="610" as="sourcePoint" />
            <mxPoint x="240" y="680" as="targetPoint" />
          </mxGeometry>
        </mxCell>
        <mxCell id="XsVba3elednxEtef4jRt-91" value="" style="endArrow=classic;html=1;rounded=0;exitX=0.188;exitY=1;exitDx=0;exitDy=0;exitPerimeter=0;entryX=0.498;entryY=-0.033;entryDx=0;entryDy=0;entryPerimeter=0;" edge="1" parent="1" source="XsVba3elednxEtef4jRt-16" target="XsVba3elednxEtef4jRt-32">
          <mxGeometry width="50" height="50" relative="1" as="geometry">
            <mxPoint x="69" y="620" as="sourcePoint" />
            <mxPoint x="250" y="690" as="targetPoint" />
          </mxGeometry>
        </mxCell>
        <mxCell id="XsVba3elednxEtef4jRt-92" value="" style="endArrow=classic;html=1;rounded=0;exitX=0.271;exitY=1.044;exitDx=0;exitDy=0;exitPerimeter=0;entryX=0.113;entryY=-0.022;entryDx=0;entryDy=0;entryPerimeter=0;" edge="1" parent="1" source="XsVba3elednxEtef4jRt-16" target="XsVba3elednxEtef4jRt-32">
          <mxGeometry width="50" height="50" relative="1" as="geometry">
            <mxPoint x="79" y="630" as="sourcePoint" />
            <mxPoint x="260" y="700" as="targetPoint" />
          </mxGeometry>
        </mxCell>
        <mxCell id="XsVba3elednxEtef4jRt-93" value="" style="endArrow=classic;html=1;rounded=0;exitX=0.345;exitY=1.011;exitDx=0;exitDy=0;exitPerimeter=0;entryX=0.731;entryY=0;entryDx=0;entryDy=0;entryPerimeter=0;" edge="1" parent="1" source="XsVba3elednxEtef4jRt-16" target="XsVba3elednxEtef4jRt-32">
          <mxGeometry width="50" height="50" relative="1" as="geometry">
            <mxPoint x="89" y="640" as="sourcePoint" />
            <mxPoint x="460" y="650" as="targetPoint" />
          </mxGeometry>
        </mxCell>
        <mxCell id="XsVba3elednxEtef4jRt-94" value="" style="endArrow=classic;html=1;rounded=0;entryX=0.346;entryY=0;entryDx=0;entryDy=0;entryPerimeter=0;" edge="1" parent="1" target="XsVba3elednxEtef4jRt-32">
          <mxGeometry width="50" height="50" relative="1" as="geometry">
            <mxPoint x="350" y="600" as="sourcePoint" />
            <mxPoint x="280" y="720" as="targetPoint" />
          </mxGeometry>
        </mxCell>
        <mxCell id="XsVba3elednxEtef4jRt-95" value="" style="endArrow=classic;html=1;rounded=0;exitX=0.494;exitY=1;exitDx=0;exitDy=0;exitPerimeter=0;" edge="1" parent="1" source="XsVba3elednxEtef4jRt-16">
          <mxGeometry width="50" height="50" relative="1" as="geometry">
            <mxPoint x="109" y="660" as="sourcePoint" />
            <mxPoint x="470" y="670" as="targetPoint" />
          </mxGeometry>
        </mxCell>
        <mxCell id="XsVba3elednxEtef4jRt-96" value="" style="endArrow=classic;html=1;rounded=0;entryX=0.881;entryY=-0.014;entryDx=0;entryDy=0;entryPerimeter=0;exitX=0.577;exitY=1;exitDx=0;exitDy=0;exitPerimeter=0;" edge="1" parent="1" source="XsVba3elednxEtef4jRt-16" target="XsVba3elednxEtef4jRt-32">
          <mxGeometry width="50" height="50" relative="1" as="geometry">
            <mxPoint x="470" y="610" as="sourcePoint" />
            <mxPoint x="650.5" y="670" as="targetPoint" />
          </mxGeometry>
        </mxCell>
        <mxCell id="XsVba3elednxEtef4jRt-97" value="" style="endArrow=classic;html=1;rounded=0;entryX=0.418;entryY=-0.001;entryDx=0;entryDy=0;entryPerimeter=0;exitX=0.653;exitY=1.004;exitDx=0;exitDy=0;exitPerimeter=0;" edge="1" parent="1" source="XsVba3elednxEtef4jRt-16" target="XsVba3elednxEtef4jRt-32">
          <mxGeometry width="50" height="50" relative="1" as="geometry">
            <mxPoint x="529" y="600" as="sourcePoint" />
            <mxPoint x="710" y="670" as="targetPoint" />
          </mxGeometry>
        </mxCell>
        <mxCell id="XsVba3elednxEtef4jRt-98" value="" style="endArrow=classic;html=1;rounded=0;exitX=0.732;exitY=1.034;exitDx=0;exitDy=0;exitPerimeter=0;entryX=0.653;entryY=0.013;entryDx=0;entryDy=0;entryPerimeter=0;" edge="1" parent="1" source="XsVba3elednxEtef4jRt-16" target="XsVba3elednxEtef4jRt-32">
          <mxGeometry width="50" height="50" relative="1" as="geometry">
            <mxPoint x="139" y="690" as="sourcePoint" />
            <mxPoint x="320" y="760" as="targetPoint" />
          </mxGeometry>
        </mxCell>
        <mxCell id="XsVba3elednxEtef4jRt-99" value="" style="endArrow=classic;html=1;rounded=0;exitX=0.807;exitY=1.003;exitDx=0;exitDy=0;exitPerimeter=0;entryX=0.963;entryY=-0.009;entryDx=0;entryDy=0;entryPerimeter=0;" edge="1" parent="1" source="XsVba3elednxEtef4jRt-16" target="XsVba3elednxEtef4jRt-32">
          <mxGeometry width="50" height="50" relative="1" as="geometry">
            <mxPoint x="660" y="630" as="sourcePoint" />
            <mxPoint x="841" y="700" as="targetPoint" />
          </mxGeometry>
        </mxCell>
        <mxCell id="XsVba3elednxEtef4jRt-100" value="" style="endArrow=classic;html=1;rounded=0;exitX=0.885;exitY=1.001;exitDx=0;exitDy=0;exitPerimeter=0;entryX=0.808;entryY=-0.002;entryDx=0;entryDy=0;entryPerimeter=0;" edge="1" parent="1" source="XsVba3elednxEtef4jRt-16" target="XsVba3elednxEtef4jRt-32">
          <mxGeometry width="50" height="50" relative="1" as="geometry">
            <mxPoint x="159" y="710" as="sourcePoint" />
            <mxPoint x="340" y="780" as="targetPoint" />
          </mxGeometry>
        </mxCell>
        <mxCell id="XsVba3elednxEtef4jRt-101" value="" style="endArrow=classic;html=1;rounded=0;exitX=0.962;exitY=1.002;exitDx=0;exitDy=0;exitPerimeter=0;entryX=0.186;entryY=-0.046;entryDx=0;entryDy=0;entryPerimeter=0;" edge="1" parent="1" source="XsVba3elednxEtef4jRt-16" target="XsVba3elednxEtef4jRt-32">
          <mxGeometry width="50" height="50" relative="1" as="geometry">
            <mxPoint x="760" y="610" as="sourcePoint" />
            <mxPoint x="480" y="660" as="targetPoint" />
          </mxGeometry>
        </mxCell>
        <mxCell id="XsVba3elednxEtef4jRt-102" value="" style="shape=table;startSize=0;container=1;collapsible=0;childLayout=tableLayout;fillColor=#dae8fc;strokeColor=#6c8ebf;" vertex="1" parent="1">
          <mxGeometry x="880" y="470" width="40" height="37.5" as="geometry" />
        </mxCell>
        <mxCell id="XsVba3elednxEtef4jRt-103" value="" style="shape=tableRow;horizontal=0;startSize=0;swimlaneHead=0;swimlaneBody=0;strokeColor=inherit;top=0;left=0;bottom=0;right=0;collapsible=0;dropTarget=0;fillColor=none;points=[[0,0.5],[1,0.5]];portConstraint=eastwest;" vertex="1" parent="XsVba3elednxEtef4jRt-102">
          <mxGeometry width="40" height="38" as="geometry" />
        </mxCell>
        <mxCell id="XsVba3elednxEtef4jRt-104" value="" style="shape=partialRectangle;html=1;whiteSpace=wrap;connectable=0;strokeColor=inherit;overflow=hidden;fillColor=none;top=0;left=0;bottom=0;right=0;pointerEvents=1;" vertex="1" parent="XsVba3elednxEtef4jRt-103">
          <mxGeometry width="40" height="38" as="geometry">
            <mxRectangle width="40" height="38" as="alternateBounds" />
          </mxGeometry>
        </mxCell>
        <mxCell id="XsVba3elednxEtef4jRt-105" value="" style="shape=table;startSize=0;container=1;collapsible=0;childLayout=tableLayout;fillColor=#d5e8d4;strokeColor=#82b366;" vertex="1" parent="1">
          <mxGeometry x="880" y="410" width="40" height="37.5" as="geometry" />
        </mxCell>
        <mxCell id="XsVba3elednxEtef4jRt-106" value="" style="shape=tableRow;horizontal=0;startSize=0;swimlaneHead=0;swimlaneBody=0;strokeColor=inherit;top=0;left=0;bottom=0;right=0;collapsible=0;dropTarget=0;fillColor=none;points=[[0,0.5],[1,0.5]];portConstraint=eastwest;" vertex="1" parent="XsVba3elednxEtef4jRt-105">
          <mxGeometry width="40" height="38" as="geometry" />
        </mxCell>
        <mxCell id="XsVba3elednxEtef4jRt-107" value="" style="shape=partialRectangle;html=1;whiteSpace=wrap;connectable=0;strokeColor=inherit;overflow=hidden;fillColor=none;top=0;left=0;bottom=0;right=0;pointerEvents=1;" vertex="1" parent="XsVba3elednxEtef4jRt-106">
          <mxGeometry width="40" height="38" as="geometry">
            <mxRectangle width="40" height="38" as="alternateBounds" />
          </mxGeometry>
        </mxCell>
        <mxCell id="XsVba3elednxEtef4jRt-108" value="" style="shape=table;startSize=0;container=1;collapsible=0;childLayout=tableLayout;fillColor=#e1d5e7;strokeColor=#9673a6;" vertex="1" parent="1">
          <mxGeometry x="880" y="647.5" width="40" height="37.5" as="geometry" />
        </mxCell>
        <mxCell id="XsVba3elednxEtef4jRt-109" value="" style="shape=tableRow;horizontal=0;startSize=0;swimlaneHead=0;swimlaneBody=0;strokeColor=inherit;top=0;left=0;bottom=0;right=0;collapsible=0;dropTarget=0;fillColor=none;points=[[0,0.5],[1,0.5]];portConstraint=eastwest;" vertex="1" parent="XsVba3elednxEtef4jRt-108">
          <mxGeometry width="40" height="38" as="geometry" />
        </mxCell>
        <mxCell id="XsVba3elednxEtef4jRt-110" value="" style="shape=partialRectangle;html=1;whiteSpace=wrap;connectable=0;strokeColor=inherit;overflow=hidden;fillColor=none;top=0;left=0;bottom=0;right=0;pointerEvents=1;" vertex="1" parent="XsVba3elednxEtef4jRt-109">
          <mxGeometry width="40" height="38" as="geometry">
            <mxRectangle width="40" height="38" as="alternateBounds" />
          </mxGeometry>
        </mxCell>
        <mxCell id="XsVba3elednxEtef4jRt-111" value="" style="shape=table;startSize=0;container=1;collapsible=0;childLayout=tableLayout;fillColor=#ffe6cc;strokeColor=#d79b00;" vertex="1" parent="1">
          <mxGeometry x="880" y="527.5" width="40" height="37.5" as="geometry" />
        </mxCell>
        <mxCell id="XsVba3elednxEtef4jRt-112" value="" style="shape=tableRow;horizontal=0;startSize=0;swimlaneHead=0;swimlaneBody=0;strokeColor=inherit;top=0;left=0;bottom=0;right=0;collapsible=0;dropTarget=0;fillColor=none;points=[[0,0.5],[1,0.5]];portConstraint=eastwest;" vertex="1" parent="XsVba3elednxEtef4jRt-111">
          <mxGeometry width="40" height="38" as="geometry" />
        </mxCell>
        <mxCell id="XsVba3elednxEtef4jRt-113" value="" style="shape=partialRectangle;html=1;whiteSpace=wrap;connectable=0;strokeColor=inherit;overflow=hidden;fillColor=none;top=0;left=0;bottom=0;right=0;pointerEvents=1;" vertex="1" parent="XsVba3elednxEtef4jRt-112">
          <mxGeometry width="40" height="38" as="geometry">
            <mxRectangle width="40" height="38" as="alternateBounds" />
          </mxGeometry>
        </mxCell>
        <mxCell id="XsVba3elednxEtef4jRt-114" value="" style="shape=table;startSize=0;container=1;collapsible=0;childLayout=tableLayout;fillColor=#f8cecc;strokeColor=#b85450;" vertex="1" parent="1">
          <mxGeometry x="880" y="592.5" width="40" height="37.5" as="geometry" />
        </mxCell>
        <mxCell id="XsVba3elednxEtef4jRt-115" value="" style="shape=tableRow;horizontal=0;startSize=0;swimlaneHead=0;swimlaneBody=0;strokeColor=inherit;top=0;left=0;bottom=0;right=0;collapsible=0;dropTarget=0;fillColor=none;points=[[0,0.5],[1,0.5]];portConstraint=eastwest;" vertex="1" parent="XsVba3elednxEtef4jRt-114">
          <mxGeometry width="40" height="38" as="geometry" />
        </mxCell>
        <mxCell id="XsVba3elednxEtef4jRt-116" value="" style="shape=partialRectangle;html=1;whiteSpace=wrap;connectable=0;strokeColor=inherit;overflow=hidden;fillColor=none;top=0;left=0;bottom=0;right=0;pointerEvents=1;" vertex="1" parent="XsVba3elednxEtef4jRt-115">
          <mxGeometry width="40" height="38" as="geometry">
            <mxRectangle width="40" height="38" as="alternateBounds" />
          </mxGeometry>
        </mxCell>
      </root>
    </mxGraphModel>
  </diagram>
</mxfile>
